# xmcd
#
# Track frame offsets:
#	150
#	14362
#	27360
#	39777
#	51520
#	65482
#	77695
#	89257
#	101250
#	115200
#	129000
#	142692
#	155970
#	170265
#	184275
#	195887
#	206910
#	217897
#	229025
#	240457
#
# Disc length: 3364 seconds
#
# Revision: 1
# Processed by: cddbd v1.4PL0 Copyright (c) Steve Scherf et al.
# Submitted via: audiograbber 1.81.01
#
DISCID=000d2214
DTITLE=Ernest Tubb - The Definitive Hits Collection (Disk 2)
DYEAR=2001
DGENRE=
TTITLE0=My Filipino Rose
TTITLE1=Slipping Around
TTITLE2=Blue Christmas
TTITLE3=Tennessee Border No. 2
TTITLE4=Letters Have No Arms
TTITLE5=I'll Take a Back Seat for You
TTITLE6=Throw Your Love My Way
TTITLE7=I Love You Because
TTITLE8=Unfaithful One
TTITLE9=Give Me a Little Old-Fashioned Love
TTITLE10=Goodnight Irene
TTITLE11=(Remember Me) I'm the One Who Loves You
TTITLE12=Hey La, La
TTITLE13=Missing in Action
TTITLE14=Fortunes in Memories
TTITLE15=The Yellow Rose of Texas
TTITLE16=Mister Love
TTITLE17=Half a Mind
TTITLE18=Thanks a Lot
TTITLE19=Waltz Across Texas
EXTD=
EXTT0=
EXTT1=
EXTT2=
EXTT3=
EXTT4=
EXTT5=
EXTT6=
EXTT7=
EXTT8=
EXTT9=
EXTT10=
EXTT11=
EXTT12=
EXTT13=
EXTT14=
EXTT15=
EXTT16=
EXTT17=
EXTT18=
EXTT19=
PLAYORDER=
